# xmcd
#
# Track frame offsets: 
#        150
#        15460
#        34648
#        54261
#        72057
#        92295
#        110726
#        125055
#        144160
#        163453
#        182188
#        198147
#        217929
#
# Disc length: 3187 seconds
#
# Revision: 2
# Processed by: cddbd v1.5.2PL0 Copyright (c) Steve Scherf et al.
# Submitted via: ExactAudioCopy v0.99pb5
#
DISCID=ab0c710d
DTITLE=Jimmy Webb - Just Across The River
DYEAR=2010
DGENRE=Country
TTITLE0=Oklahoma Nights
TTITLE1=Wichita Lineman
TTITLE2=If You See Me Getting Smaller
TTITLE3=Galveston
TTITLE4=P.F. Sloan
TTITLE5=By The Time I Get To Phoenix
TTITLE6=Cowboy Hall Of Fame
TTITLE7=Where Words End
TTITLE8=Highwayman
TTITLE9=I Was Too Busy Loving You
TTITLE10=It Won't Bring Her Back
TTITLE11=Do What You Gotta Do
TTITLE12=All I Know
EXTD=
EXTT0=
EXTT1=
EXTT2=
EXTT3=
EXTT4=
EXTT5=
EXTT6=
EXTT7=
EXTT8=
EXTT9=
EXTT10=
EXTT11=
EXTT12=
PLAYORDER=
